<svg width="40" height="39" viewBox="0 0 40 39" fill="none" xmlns="http://www.w3.org/2000/svg">
<path d="M38.1395 7.54431H1.86072V18.6907H38.1395V7.54431Z" fill="#EBEBEB"/>
<path d="M38.1395 18.691H1.86072V36.545H38.1395V18.691Z" fill="#0066F6"/>
<path d="M37.1765 5.99426H30.7173V2.82351C30.7173 1.18717 29.8614 0 28.6822 0H11.934C10.7548 0 9.89891 1.18803 9.89891 2.82351V5.99426H2.82351C2.07499 5.9953 1.35742 6.2931 0.828124 6.82239C0.298834 7.35168 0.0010264 8.06927 0 8.81778V35.3151C0.00108327 36.0637 0.298906 36.7812 0.828184 37.3105C1.35746 37.8397 2.07501 38.1376 2.82351 38.1386H37.1765C37.925 38.1376 38.6426 37.8397 39.1719 37.3105C39.7011 36.7812 39.9989 36.0637 40 35.3151V8.81864C39.9991 8.06998 39.7015 7.35218 39.1721 6.82269C38.6428 6.29323 37.9253 5.9953 37.1765 5.99426ZM12.4666 2.82351C12.4664 2.73764 12.4724 2.65184 12.4845 2.56681H28.1324C28.1444 2.65184 28.1505 2.73764 28.1503 2.82351V5.99426H12.4666V2.82351ZM37.4332 35.3151C37.4332 35.3832 37.406 35.4485 37.358 35.4966C37.3099 35.5447 37.2446 35.5718 37.1765 35.5718H2.82351C2.75545 35.5718 2.69018 35.5447 2.64205 35.4966C2.59392 35.4485 2.56688 35.3832 2.56681 35.3151V20.0366H14.6084V20.8067C14.6083 20.8877 14.6243 20.9679 14.6552 21.0426C14.6862 21.1174 14.7315 21.1854 14.7888 21.2426C14.846 21.2999 14.914 21.3453 14.9887 21.3763C15.0635 21.4073 15.1437 21.4232 15.2246 21.4232H25.3916C25.4727 21.4232 25.5528 21.4073 25.6276 21.3763C25.7024 21.3454 25.7703 21.3 25.8277 21.2427C25.8848 21.1855 25.9303 21.1175 25.9613 21.0427C25.9921 20.9679 26.0081 20.8877 26.0081 20.8067V20.0366H37.4332V35.3151ZM37.4332 17.4687H2.56681V8.81864C2.56688 8.75058 2.59392 8.68533 2.64205 8.63721C2.69018 8.58908 2.75545 8.56201 2.82351 8.56194H37.1765C37.2446 8.56201 37.3099 8.58908 37.358 8.63721C37.406 8.68533 37.4332 8.75058 37.4332 8.81864V17.4687Z" fill="#001533"/>
</svg>
